<mxfile host="Electron" agent="Mozilla/5.0 (Windows NT 10.0; Win64; x64) AppleWebKit/537.36 (KHTML, like Gecko) draw.io/24.7.8 Chrome/128.0.6613.36 Electron/32.0.1 Safari/537.36" version="24.7.8">
  <diagram name="PÃ¡gina-1" id="9jjPtB7xP-T43i6acyzI">
    <mxGraphModel dx="1235" dy="731" grid="1" gridSize="10" guides="1" tooltips="1" connect="1" arrows="1" fold="1" page="1" pageScale="1" pageWidth="1169" pageHeight="1654" math="0" shadow="0">
      <root>
        <mxCell id="0" />
        <mxCell id="1" parent="0" />
        <mxCell id="qsDexsQ_9eydA8mYMFUP-36" value="" style="rounded=0;whiteSpace=wrap;html=1;" vertex="1" parent="1">
          <mxGeometry x="730" y="100" width="130" height="410" as="geometry" />
        </mxCell>
        <mxCell id="2WcXTQN5DrVrhPLp3CQN-1" value="Usuario" style="shape=umlActor;verticalLabelPosition=bottom;verticalAlign=top;html=1;outlineConnect=0;" parent="1" vertex="1">
          <mxGeometry x="90" y="100" width="30" height="60" as="geometry" />
        </mxCell>
        <mxCell id="2WcXTQN5DrVrhPLp3CQN-2" value="Administradores" style="shape=umlActor;verticalLabelPosition=bottom;verticalAlign=top;html=1;outlineConnect=0;" parent="1" vertex="1">
          <mxGeometry x="60" y="770" width="30" height="60" as="geometry" />
        </mxCell>
        <mxCell id="2WcXTQN5DrVrhPLp3CQN-3" value="" style="rounded=1;whiteSpace=wrap;html=1;shadow=0;" parent="1" vertex="1">
          <mxGeometry x="160" y="40" width="480" height="950" as="geometry" />
        </mxCell>
        <mxCell id="2WcXTQN5DrVrhPLp3CQN-4" value="&lt;font style=&quot;font-size: 12px;&quot;&gt;Sistema de pagina web alquiler de peliculas&lt;/font&gt;" style="text;strokeColor=none;fillColor=none;html=1;fontSize=24;fontStyle=1;verticalAlign=middle;align=center;" parent="1" vertex="1">
          <mxGeometry x="350" y="30" width="100" height="40" as="geometry" />
        </mxCell>
        <mxCell id="2WcXTQN5DrVrhPLp3CQN-6" value="Registrarse" style="ellipse;whiteSpace=wrap;html=1;" parent="1" vertex="1">
          <mxGeometry x="250" y="70" width="120" height="80" as="geometry" />
        </mxCell>
        <mxCell id="2WcXTQN5DrVrhPLp3CQN-7" value="Iniciar sesion&lt;hr&gt;Si no estas registrado" style="ellipse;whiteSpace=wrap;html=1;" parent="1" vertex="1">
          <mxGeometry x="465" y="70" width="120" height="80" as="geometry" />
        </mxCell>
        <mxCell id="2WcXTQN5DrVrhPLp3CQN-8" value="Extends" style="endArrow=block;endSize=16;endFill=0;html=1;rounded=0;exitX=1;exitY=0.5;exitDx=0;exitDy=0;entryX=0;entryY=0.5;entryDx=0;entryDy=0;dashed=1;dashPattern=8 8;" parent="1" source="2WcXTQN5DrVrhPLp3CQN-6" target="2WcXTQN5DrVrhPLp3CQN-7" edge="1">
          <mxGeometry width="160" relative="1" as="geometry">
            <mxPoint x="414" y="294.5" as="sourcePoint" />
            <mxPoint x="574" y="294.5" as="targetPoint" />
          </mxGeometry>
        </mxCell>
        <mxCell id="2WcXTQN5DrVrhPLp3CQN-9" value="" style="endArrow=none;html=1;rounded=0;exitX=0.5;exitY=0.5;exitDx=0;exitDy=0;exitPerimeter=0;entryX=0;entryY=0.5;entryDx=0;entryDy=0;" parent="1" source="2WcXTQN5DrVrhPLp3CQN-1" target="2WcXTQN5DrVrhPLp3CQN-6" edge="1">
          <mxGeometry width="50" height="50" relative="1" as="geometry">
            <mxPoint x="530" y="360" as="sourcePoint" />
            <mxPoint x="580" y="310" as="targetPoint" />
          </mxGeometry>
        </mxCell>
        <mxCell id="2WcXTQN5DrVrhPLp3CQN-10" value="" style="endArrow=none;html=1;rounded=0;exitX=0.5;exitY=0.5;exitDx=0;exitDy=0;exitPerimeter=0;entryX=0.5;entryY=1;entryDx=0;entryDy=0;" parent="1" source="2WcXTQN5DrVrhPLp3CQN-1" target="2WcXTQN5DrVrhPLp3CQN-7" edge="1">
          <mxGeometry width="50" height="50" relative="1" as="geometry">
            <mxPoint x="400" y="360" as="sourcePoint" />
            <mxPoint x="450" y="310" as="targetPoint" />
            <Array as="points">
              <mxPoint x="320" y="180" />
            </Array>
          </mxGeometry>
        </mxCell>
        <mxCell id="2WcXTQN5DrVrhPLp3CQN-11" value="UsuarioRegistrado" style="shape=umlActor;verticalLabelPosition=bottom;verticalAlign=top;html=1;outlineConnect=0;" parent="1" vertex="1">
          <mxGeometry x="60" y="430" width="30" height="60" as="geometry" />
        </mxCell>
        <mxCell id="2WcXTQN5DrVrhPLp3CQN-12" value="Actualizar datos" style="ellipse;whiteSpace=wrap;html=1;" parent="1" vertex="1">
          <mxGeometry x="310" y="360" width="120" height="80" as="geometry" />
        </mxCell>
        <mxCell id="2WcXTQN5DrVrhPLp3CQN-16" value="" style="endArrow=none;html=1;rounded=0;entryX=0;entryY=0.5;entryDx=0;entryDy=0;exitX=0.5;exitY=0.5;exitDx=0;exitDy=0;exitPerimeter=0;" parent="1" source="2WcXTQN5DrVrhPLp3CQN-11" target="2WcXTQN5DrVrhPLp3CQN-12" edge="1">
          <mxGeometry width="50" height="50" relative="1" as="geometry">
            <mxPoint x="110" y="610" as="sourcePoint" />
            <mxPoint x="485" y="460" as="targetPoint" />
          </mxGeometry>
        </mxCell>
        <mxCell id="2WcXTQN5DrVrhPLp3CQN-17" value="Aceptar solicitudes de registro" style="ellipse;whiteSpace=wrap;html=1;" parent="1" vertex="1">
          <mxGeometry x="320" y="630" width="120" height="80" as="geometry" />
        </mxCell>
        <mxCell id="2WcXTQN5DrVrhPLp3CQN-18" value="" style="endArrow=none;html=1;rounded=0;entryX=0;entryY=0.5;entryDx=0;entryDy=0;exitX=0.5;exitY=0.5;exitDx=0;exitDy=0;exitPerimeter=0;" parent="1" source="2WcXTQN5DrVrhPLp3CQN-2" target="2WcXTQN5DrVrhPLp3CQN-17" edge="1">
          <mxGeometry width="50" height="50" relative="1" as="geometry">
            <mxPoint x="130" y="840" as="sourcePoint" />
            <mxPoint x="495" y="570" as="targetPoint" />
          </mxGeometry>
        </mxCell>
        <mxCell id="2WcXTQN5DrVrhPLp3CQN-19" value="Eliminar cuentas" style="ellipse;whiteSpace=wrap;html=1;" parent="1" vertex="1">
          <mxGeometry x="449" y="700" width="120" height="80" as="geometry" />
        </mxCell>
        <mxCell id="2WcXTQN5DrVrhPLp3CQN-20" value="Actualizar datos de usuarios" style="ellipse;whiteSpace=wrap;html=1;" parent="1" vertex="1">
          <mxGeometry x="240" y="890" width="120" height="80" as="geometry" />
        </mxCell>
        <mxCell id="2WcXTQN5DrVrhPLp3CQN-21" value="" style="endArrow=none;html=1;rounded=0;entryX=0;entryY=0.5;entryDx=0;entryDy=0;exitX=0.5;exitY=0.5;exitDx=0;exitDy=0;exitPerimeter=0;" parent="1" source="2WcXTQN5DrVrhPLp3CQN-2" target="2WcXTQN5DrVrhPLp3CQN-19" edge="1">
          <mxGeometry width="50" height="50" relative="1" as="geometry">
            <mxPoint x="120" y="850" as="sourcePoint" />
            <mxPoint x="495" y="570" as="targetPoint" />
          </mxGeometry>
        </mxCell>
        <mxCell id="2WcXTQN5DrVrhPLp3CQN-22" value="" style="endArrow=none;html=1;rounded=0;exitX=0.5;exitY=0.5;exitDx=0;exitDy=0;exitPerimeter=0;entryX=0;entryY=0.5;entryDx=0;entryDy=0;" parent="1" source="2WcXTQN5DrVrhPLp3CQN-2" target="2WcXTQN5DrVrhPLp3CQN-20" edge="1">
          <mxGeometry width="50" height="50" relative="1" as="geometry">
            <mxPoint x="120" y="850.0000000000002" as="sourcePoint" />
            <mxPoint x="349" y="690" as="targetPoint" />
          </mxGeometry>
        </mxCell>
        <mxCell id="2WcXTQN5DrVrhPLp3CQN-23" value="Usuario" style="shape=umlActor;verticalLabelPosition=bottom;verticalAlign=top;html=1;outlineConnect=0;" parent="1" vertex="1">
          <mxGeometry x="780" y="130" width="30" height="60" as="geometry" />
        </mxCell>
        <mxCell id="2WcXTQN5DrVrhPLp3CQN-24" value="Administradores" style="shape=umlActor;verticalLabelPosition=bottom;verticalAlign=top;html=1;outlineConnect=0;" parent="1" vertex="1">
          <mxGeometry x="780" y="410" width="40" height="60" as="geometry" />
        </mxCell>
        <mxCell id="2WcXTQN5DrVrhPLp3CQN-25" value="UsuarioRegistrado" style="shape=umlActor;verticalLabelPosition=bottom;verticalAlign=top;html=1;outlineConnect=0;" parent="1" vertex="1">
          <mxGeometry x="780" y="270" width="30" height="60" as="geometry" />
        </mxCell>
        <mxCell id="2WcXTQN5DrVrhPLp3CQN-26" value="" style="endArrow=block;dashed=1;endFill=0;endSize=12;html=1;rounded=0;exitX=0.5;exitY=0;exitDx=0;exitDy=0;exitPerimeter=0;" parent="1" source="2WcXTQN5DrVrhPLp3CQN-25" edge="1">
          <mxGeometry width="160" relative="1" as="geometry">
            <mxPoint x="370" y="400" as="sourcePoint" />
            <mxPoint x="795" y="220" as="targetPoint" />
          </mxGeometry>
        </mxCell>
        <mxCell id="2WcXTQN5DrVrhPLp3CQN-27" value="" style="endArrow=block;dashed=1;endFill=0;endSize=12;html=1;rounded=0;" parent="1" edge="1">
          <mxGeometry width="160" relative="1" as="geometry">
            <mxPoint x="795" y="410" as="sourcePoint" />
            <mxPoint x="794.5" y="350" as="targetPoint" />
          </mxGeometry>
        </mxCell>
        <mxCell id="qsDexsQ_9eydA8mYMFUP-1" value="Acceder al catalogo de peliiculas" style="ellipse;whiteSpace=wrap;html=1;" vertex="1" parent="1">
          <mxGeometry x="465" y="180" width="120" height="80" as="geometry" />
        </mxCell>
        <mxCell id="qsDexsQ_9eydA8mYMFUP-2" value="" style="endArrow=none;html=1;rounded=0;exitX=0.5;exitY=0.5;exitDx=0;exitDy=0;exitPerimeter=0;entryX=0;entryY=0.5;entryDx=0;entryDy=0;" edge="1" parent="1" source="2WcXTQN5DrVrhPLp3CQN-1" target="qsDexsQ_9eydA8mYMFUP-1">
          <mxGeometry width="50" height="50" relative="1" as="geometry">
            <mxPoint x="750" y="490" as="sourcePoint" />
            <mxPoint x="800" y="440" as="targetPoint" />
            <Array as="points">
              <mxPoint x="280" y="190" />
            </Array>
          </mxGeometry>
        </mxCell>
        <mxCell id="qsDexsQ_9eydA8mYMFUP-3" value="Alquilar pelicula" style="ellipse;whiteSpace=wrap;html=1;" vertex="1" parent="1">
          <mxGeometry x="280" y="260" width="120" height="80" as="geometry" />
        </mxCell>
        <mxCell id="qsDexsQ_9eydA8mYMFUP-4" value="" style="endArrow=none;html=1;rounded=0;exitX=0.5;exitY=0.5;exitDx=0;exitDy=0;exitPerimeter=0;entryX=0;entryY=0.5;entryDx=0;entryDy=0;" edge="1" parent="1" source="2WcXTQN5DrVrhPLp3CQN-11" target="qsDexsQ_9eydA8mYMFUP-3">
          <mxGeometry width="50" height="50" relative="1" as="geometry">
            <mxPoint x="350" y="490" as="sourcePoint" />
            <mxPoint x="400" y="440" as="targetPoint" />
          </mxGeometry>
        </mxCell>
        <mxCell id="qsDexsQ_9eydA8mYMFUP-18" value="Includes" style="endArrow=block;endSize=16;endFill=0;html=1;rounded=0;entryX=0;entryY=1;entryDx=0;entryDy=0;dashed=1;dashPattern=8 8;" edge="1" parent="1" target="qsDexsQ_9eydA8mYMFUP-1">
          <mxGeometry width="160" relative="1" as="geometry">
            <mxPoint x="400" y="299.28999999999996" as="sourcePoint" />
            <mxPoint x="560" y="299.28999999999996" as="targetPoint" />
          </mxGeometry>
        </mxCell>
        <mxCell id="qsDexsQ_9eydA8mYMFUP-19" value="Ver pelicula" style="ellipse;whiteSpace=wrap;html=1;" vertex="1" parent="1">
          <mxGeometry x="190" y="570" width="120" height="80" as="geometry" />
        </mxCell>
        <mxCell id="qsDexsQ_9eydA8mYMFUP-20" value="" style="endArrow=none;html=1;rounded=0;exitX=0.5;exitY=0.5;exitDx=0;exitDy=0;exitPerimeter=0;entryX=0;entryY=0.5;entryDx=0;entryDy=0;" edge="1" parent="1" source="2WcXTQN5DrVrhPLp3CQN-11" target="qsDexsQ_9eydA8mYMFUP-19">
          <mxGeometry width="50" height="50" relative="1" as="geometry">
            <mxPoint x="350" y="490" as="sourcePoint" />
            <mxPoint x="400" y="440" as="targetPoint" />
          </mxGeometry>
        </mxCell>
        <mxCell id="qsDexsQ_9eydA8mYMFUP-21" value="ReseÃ±ar pelicula" style="ellipse;whiteSpace=wrap;html=1;" vertex="1" parent="1">
          <mxGeometry x="449" y="290" width="120" height="80" as="geometry" />
        </mxCell>
        <mxCell id="qsDexsQ_9eydA8mYMFUP-22" value="" style="endArrow=none;html=1;rounded=0;exitX=0.5;exitY=0.5;exitDx=0;exitDy=0;exitPerimeter=0;entryX=0;entryY=0.5;entryDx=0;entryDy=0;" edge="1" parent="1" source="2WcXTQN5DrVrhPLp3CQN-11" target="qsDexsQ_9eydA8mYMFUP-21">
          <mxGeometry width="50" height="50" relative="1" as="geometry">
            <mxPoint x="350" y="490" as="sourcePoint" />
            <mxPoint x="400" y="440" as="targetPoint" />
            <Array as="points">
              <mxPoint x="280" y="360" />
            </Array>
          </mxGeometry>
        </mxCell>
        <mxCell id="qsDexsQ_9eydA8mYMFUP-24" value="Modificar puntuacion" style="ellipse;whiteSpace=wrap;html=1;" vertex="1" parent="1">
          <mxGeometry x="430" y="480" width="120" height="80" as="geometry" />
        </mxCell>
        <mxCell id="qsDexsQ_9eydA8mYMFUP-26" value="" style="endArrow=none;html=1;rounded=0;exitX=0.5;exitY=0.5;exitDx=0;exitDy=0;exitPerimeter=0;entryX=0;entryY=0.5;entryDx=0;entryDy=0;" edge="1" parent="1" source="2WcXTQN5DrVrhPLp3CQN-11" target="qsDexsQ_9eydA8mYMFUP-24">
          <mxGeometry width="50" height="50" relative="1" as="geometry">
            <mxPoint x="350" y="480" as="sourcePoint" />
            <mxPoint x="400" y="430" as="targetPoint" />
          </mxGeometry>
        </mxCell>
        <mxCell id="qsDexsQ_9eydA8mYMFUP-27" value="Hacer peticion" style="ellipse;whiteSpace=wrap;html=1;" vertex="1" parent="1">
          <mxGeometry x="510" y="580" width="120" height="80" as="geometry" />
        </mxCell>
        <mxCell id="qsDexsQ_9eydA8mYMFUP-28" value="" style="endArrow=none;html=1;rounded=0;entryX=0;entryY=0.5;entryDx=0;entryDy=0;" edge="1" parent="1" target="qsDexsQ_9eydA8mYMFUP-27">
          <mxGeometry width="50" height="50" relative="1" as="geometry">
            <mxPoint x="80" y="460" as="sourcePoint" />
            <mxPoint x="400" y="430" as="targetPoint" />
            <Array as="points">
              <mxPoint x="320" y="540" />
            </Array>
          </mxGeometry>
        </mxCell>
        <mxCell id="qsDexsQ_9eydA8mYMFUP-32" value="Ver peticiones" style="ellipse;whiteSpace=wrap;html=1;" vertex="1" parent="1">
          <mxGeometry x="329" y="800" width="120" height="80" as="geometry" />
        </mxCell>
        <mxCell id="qsDexsQ_9eydA8mYMFUP-35" value="" style="endArrow=none;html=1;rounded=0;exitX=0.5;exitY=0.5;exitDx=0;exitDy=0;exitPerimeter=0;entryX=0;entryY=0.5;entryDx=0;entryDy=0;" edge="1" parent="1" source="2WcXTQN5DrVrhPLp3CQN-2" target="qsDexsQ_9eydA8mYMFUP-32">
          <mxGeometry width="50" height="50" relative="1" as="geometry">
            <mxPoint x="85" y="810" as="sourcePoint" />
            <mxPoint x="500" y="890" as="targetPoint" />
            <Array as="points">
              <mxPoint x="330" y="830" />
            </Array>
          </mxGeometry>
        </mxCell>
      </root>
    </mxGraphModel>
  </diagram>
</mxfile>
